<svg width="108" height="20" viewBox="0 0 108 20" fill="none" xmlns="http://www.w3.org/2000/svg">
<path d="M0 0H4.2649V20H0V0Z" fill="black"/>
<path d="M9.95144 20V0L25.234 11.9355V0H29.4989V20L14.2163 8.3871V20H9.95144Z" fill="black"/>
<path d="M33.7638 3.87097V0H48.691V3.87097H43.3598V20H39.0949V3.87097H33.7638Z" fill="black"/>
<path d="M58.6424 0L49.0464 20H53.3113L58.6424 8.06452L63.9735 20H68.9492L58.6424 0Z" fill="black"/>
<path d="M72.1479 20V0H76.4128V8.06452L84.5872 0H89.9183L80.6777 9.35484L89.5629 20H84.2318L77.479 11.9355L76.4128 12.9032V20H72.1479Z" fill="black"/>
<path d="M93.117 20V0H107.333L105.556 3.87097H97.3819V8.3871H102.713V11.9355H97.3819V16.4516H107.333V20H93.117Z" fill="black"/>
</svg>
